<svg enable-background="new 0 0 368 368" viewBox="0 0 368 368" xmlns="http://www.w3.org/2000/svg"><path d="m56 56h256v256h-256z" fill="white"/><g fill="#1077af"><path d="m344 0h-320c-13.232 0-24 10.768-24 24v320c0 13.232 10.768 24 24 24h320c13.232 0 24-10.768 24-24v-320c0-13.232-10.768-24-24-24zm8 344c0 4.408-3.592 8-8 8h-320c-4.408 0-8-3.592-8-8v-320c0-4.408 3.592-8 8-8h320c4.408 0 8 3.592 8 8z"/><path d="m50.344 125.656c1.56 1.56 3.608 2.344 5.656 2.344s4.096-.784 5.656-2.344l32-32c3.128-3.128 3.128-8.184 0-11.312l-32-32c-3.128-3.128-8.184-3.128-11.312 0s-3.128 8.184 0 11.312l26.344 26.344-26.344 26.344c-3.128 3.128-3.128 8.184 0 11.312z"/><path d="m312 48h-192c-4.416 0-8 3.584-8 8s3.584 8 8 8h184v240h-240v-136c0-4.416-3.584-8-8-8s-8 3.584-8 8v144c0 4.416 3.584 8 8 8h256c4.416 0 8-3.584 8-8v-256c0-4.416-3.584-8-8-8z"/><path d="m168 128c4.416 0 8-3.584 8-8s-3.584-8-8-8h-48c-4.416 0-8 3.584-8 8s3.584 8 8 8z"/></g></svg>